<svg width="101" height="28" viewBox="0 0 101 28" fill="none" xmlns="http://www.w3.org/2000/svg">
<path d="M9.18489 13.0186C9.75372 11.2288 11.9355 9.389 14.0581 8.90934L27.2912 5.91896C29.4137 5.43931 30.6733 6.50141 30.1045 8.29123L26.5581 19.4498C25.9893 21.2396 23.8075 23.0794 21.6849 23.5591L8.45187 26.5494C6.3293 27.0291 5.06974 25.967 5.63857 24.1772L9.18489 13.0186Z" fill="#9E77ED"/>
<path d="M3.8802 8.54545C4.44903 6.75563 6.63084 4.91585 8.75341 4.4362L21.9865 1.44581C24.1091 0.966161 25.3686 2.02826 24.7998 3.81809L21.2535 14.9767C20.6846 16.7665 18.5028 18.6063 16.3803 19.0859L3.14719 22.0763C1.02461 22.5559 -0.234945 21.4938 0.333882 19.704L3.8802 8.54545Z" fill="#6941C6"/>
<path d="M42.4005 18.3304H46.9525V19.8331H40.1924V8.48145H42.4005V18.3304Z" fill="#101828"/>
<path d="M48.0631 15.2924C48.0631 14.3887 48.2826 13.5883 48.7216 12.8914C49.1736 12.1946 49.7805 11.6556 50.5424 11.2744C51.3172 10.8824 52.1695 10.6864 53.0992 10.6864C53.9386 10.6864 54.6682 10.828 55.288 11.1111C55.9208 11.3833 56.4244 11.7263 56.7989 12.1401V10.8334H59.0264V19.8331H56.7989V18.4938C56.4244 18.9184 55.9143 19.2723 55.2686 19.5554C54.623 19.8386 53.8869 19.9801 53.0605 19.9801C52.1436 19.9801 51.3043 19.7841 50.5424 19.3921C49.7805 18.9892 49.1736 18.4339 48.7216 17.7261C48.2826 17.0074 48.0631 16.1962 48.0631 15.2924ZM56.7989 15.3251C56.7989 14.7044 56.6439 14.1654 56.334 13.7081C56.037 13.2508 55.6431 12.9023 55.1524 12.6628C54.6617 12.4232 54.1323 12.3034 53.5641 12.3034C52.9959 12.3034 52.4665 12.4232 51.9758 12.6628C51.4851 12.8914 51.0847 13.2344 50.7748 13.6918C50.4778 14.1382 50.3293 14.6718 50.3293 15.2924C50.3293 15.9131 50.4778 16.4576 50.7748 16.9258C51.0847 17.394 51.4851 17.7533 51.9758 18.0038C52.4794 18.2433 53.0088 18.3631 53.5641 18.3631C54.1323 18.3631 54.6617 18.2433 55.1524 18.0038C55.6431 17.7642 56.037 17.4158 56.334 16.9584C56.6439 16.4902 56.7989 15.9458 56.7989 15.3251Z" fill="#101828"/>
<path d="M71.5342 10.8334L64.9872 24.0634H62.7015L64.8709 19.6861L60.6677 10.8334H63.1277L66.13 17.6934L69.2485 10.8334H71.5342Z" fill="#101828"/>
<path d="M82.9824 15.1128C82.9824 15.4503 82.9565 15.7552 82.9049 16.0274H74.7502C74.8147 16.7461 75.1311 17.3232 75.6993 17.7588C76.2675 18.1943 76.9648 18.4121 77.7912 18.4121C78.9793 18.4121 79.8186 17.9929 80.3093 17.1544H82.6918C82.369 17.982 81.7814 18.6626 80.9292 19.1961C80.0898 19.7188 79.0438 19.9801 77.7912 19.9801C76.7711 19.9801 75.8543 19.7896 75.0407 19.4084C74.2401 19.0164 73.6074 18.472 73.1425 17.7751C72.6905 17.0673 72.4645 16.2507 72.4645 15.3251C72.4645 14.3996 72.6841 13.5883 73.1231 12.8914C73.5751 12.1837 74.2014 11.6392 75.002 11.2581C75.8155 10.877 76.7453 10.6864 77.7912 10.6864C78.7985 10.6864 79.6959 10.8716 80.4837 11.2418C81.2714 11.612 81.8847 12.1347 82.3238 12.8098C82.7628 13.474 82.9824 14.2417 82.9824 15.1128ZM80.6774 14.5248C80.6644 13.8388 80.3739 13.2889 79.8057 12.8751C79.2375 12.4613 78.5338 12.2544 77.6944 12.2544C76.9325 12.2544 76.2804 12.4613 75.738 12.8751C75.1957 13.278 74.8729 13.8279 74.7695 14.5248H80.6774Z" fill="#101828"/>
<path d="M87.3636 12.1401C87.6864 11.6828 88.1126 11.3289 88.642 11.0784C89.1844 10.8171 89.8236 10.6864 90.5596 10.6864V12.6138H89.9979C89.1327 12.6138 88.4741 12.7989 88.0222 13.1691C87.5831 13.5393 87.3636 14.1818 87.3636 15.0964V19.8331H85.1554V10.8334H87.3636V12.1401Z" fill="#101828"/>
<path d="M96.4633 19.9801C95.624 19.9801 94.8686 19.8549 94.1971 19.6044C93.5385 19.3431 93.0155 18.9947 92.6281 18.5591C92.2407 18.1127 92.0341 17.6172 92.0083 17.0728H94.2939C94.3327 17.4539 94.5457 17.7751 94.9331 18.0364C95.3334 18.2869 95.8306 18.4121 96.4246 18.4121C97.0444 18.4121 97.5222 18.3141 97.858 18.1181C98.2066 17.9112 98.3809 17.6499 98.3809 17.3341C98.3809 16.9966 98.1873 16.7461 97.7999 16.5828C97.4254 16.4194 96.8249 16.2398 95.9985 16.0438C95.1978 15.8587 94.5457 15.679 94.0421 15.5048C93.5385 15.3306 93.0994 15.0638 92.7249 14.7044C92.3634 14.3451 92.1826 13.8714 92.1826 13.2834C92.1826 12.8043 92.3505 12.3688 92.6862 11.9768C93.022 11.5739 93.4997 11.2581 94.1196 11.0294C94.7523 10.8008 95.4755 10.6864 96.289 10.6864C97.5028 10.6864 98.4778 10.9478 99.2139 11.4704C99.9628 11.9822 100.363 12.6846 100.415 13.5774H98.2066C98.1679 13.1746 97.9742 12.8533 97.6255 12.6138C97.2769 12.3742 96.8055 12.2544 96.2115 12.2544C95.6304 12.2544 95.1849 12.347 94.875 12.5321C94.5651 12.7172 94.4101 12.9622 94.4101 13.2671C94.4101 13.5067 94.5134 13.7081 94.72 13.8714C94.9267 14.0348 95.1785 14.1654 95.4755 14.2634C95.7725 14.3506 96.2115 14.4649 96.7926 14.6064C97.5674 14.7807 98.2002 14.9603 98.6909 15.1454C99.1945 15.3197 99.6271 15.581 99.9886 15.9294C100.35 16.2779 100.537 16.7407 100.55 17.3178C100.55 17.8296 100.382 18.2869 100.047 18.6898C99.711 19.0927 99.2332 19.4084 98.6134 19.6371C98.0065 19.8658 97.2898 19.9801 96.4633 19.9801Z" fill="#101828"/>
</svg>
