<svg width="11" height="17" viewBox="0 0 11 17" fill="none" xmlns="http://www.w3.org/2000/svg">
<path d="M4.004 12.204V11.918C4.004 11.258 4.114 10.6787 4.334 10.18C4.56867 9.66667 4.85467 9.212 5.192 8.816C5.544 8.40533 5.91067 8.024 6.292 7.672C6.80533 7.15867 7.26733 6.66 7.678 6.176C8.10333 5.692 8.316 5.12 8.316 4.46C8.316 4.07867 8.22067 3.71933 8.03 3.382C7.83933 3.04467 7.55333 2.77333 7.172 2.568C6.80533 2.36267 6.35067 2.26 5.808 2.26C5.06 2.26 4.41467 2.49467 3.872 2.964C3.32933 3.43333 2.992 4.05667 2.86 4.834L0.924 4.394C1.056 3.58733 1.342 2.88333 1.782 2.282C2.23667 1.666 2.80867 1.18933 3.498 0.851999C4.202 0.514666 4.97933 0.345999 5.83 0.345999C6.78333 0.345999 7.60467 0.543999 8.294 0.94C8.998 1.32133 9.54067 1.82 9.922 2.436C10.3033 3.052 10.494 3.71933 10.494 4.438C10.494 5.08333 10.362 5.65533 10.098 6.154C9.834 6.638 9.49667 7.08533 9.086 7.496C8.69 7.90667 8.294 8.31733 7.898 8.728C7.414 9.19733 6.98867 9.68867 6.622 10.202C6.27 10.7007 6.094 11.2873 6.094 11.962V12.204H4.004ZM4.026 17V14.36H6.16V17H4.026Z" fill="#101828"/>
</svg>
