<svg width="390" height="428" viewBox="0 0 390 428" fill="none" xmlns="http://www.w3.org/2000/svg">
<path fill-rule="evenodd" clip-rule="evenodd" d="M-9.84978 559.934C-80.3172 514.541 -176.363 478.135 -182.98 394.986C-189.781 309.527 -148.402 182.984 -53.0913 141.097C51.541 95.1146 107.812 241.89 216.499 213.141C321.82 185.283 411.274 -25.3517 504.052 2.58563C596.28 30.3569 482.678 182.879 484.793 274.352C485.793 317.566 520.403 349.665 513.101 393.896C505.539 439.699 474.934 481.703 443.74 523.008C405.665 573.425 375.063 640.4 312.845 659.065C250.662 677.719 206.619 627.463 151.741 610.605C96.3545 593.59 36.282 589.651 -9.84978 559.934Z" fill="#ECFDF3"/>
</svg>
