<svg width="390" height="296" viewBox="0 0 390 296" fill="none" xmlns="http://www.w3.org/2000/svg">
<path fill-rule="evenodd" clip-rule="evenodd" d="M46.2603 452.572C-10.5128 416.258 -87.9638 387.242 -93.0774 320.388C-98.3331 251.675 -64.5735 149.788 12.4993 115.838C97.1102 78.5675 138.164 185.921 226 162.5C311.118 139.804 387.905 -19.3095 462.741 2.90366C537.132 24.9849 444.985 147.965 446.441 221.527C447.129 256.279 474.987 282 468.969 317.593C462.736 354.451 437.909 388.318 412.608 421.624C381.726 462.277 356.832 516.226 306.544 531.409C256.283 546.583 220.86 506.286 176.596 492.878C131.921 479.347 83.427 476.345 46.2603 452.572Z" fill="#ECFDF3"/>
</svg>
